<?xml version="1.0" encoding="utf-8"?>
<!-- Generator: Adobe Illustrator 17.0.0, SVG Export Plug-In . SVG Version: 6.00 Build 0)  -->
<!DOCTYPE svg PUBLIC "-//W3C//DTD SVG 1.1//EN" "http://www.w3.org/Graphics/SVG/1.1/DTD/svg11.dtd">
<svg version="1.1" id="图层_1" xmlns="http://www.w3.org/2000/svg" xmlns:xlink="http://www.w3.org/1999/xlink" x="0px" y="0px"
	 width="174px" height="34.489px" viewBox="0 0 174 34.489" enable-background="new 0 0 174 34.489" xml:space="preserve">
<g>
	<rect x="21.261" y="12.656" fill="#FFFFFF" width="13.768" height="21.11"/>
	<rect x="1.242" y="0.723" fill="#FFFFFF" width="16.062" height="33.043"/>
	<rect x="21.261" y="0.723" fill="#FFFFFF" width="13.768" height="8.72"/>
</g>
<g>
	<polygon fill="#FFFFFF" points="169.503,29.84 172.717,29.84 172.717,3.194 169.503,3.743 	"/>
	<path fill="#FFFFFF" d="M55.789,12.246c-0.567-0.646-1.314-1.149-2.242-1.504c-0.929-0.354-2.068-0.533-3.42-0.533
		c-1.181,0-2.279,0.092-3.291,0.274c-1.014,0.185-1.738,0.375-2.17,0.57l0.396,2.827c0.41-0.172,1.032-0.336,1.863-0.496
		c0.833-0.159,1.802-0.238,2.912-0.238c0.868,0,1.573,0.128,2.117,0.386c0.543,0.256,0.971,0.598,1.285,1.027
		c0.312,0.428,0.481,0.917,0.603,1.468c0.121,0.55,0.135,1.106,0.135,1.669v0.954c0-0.023-0.22-0.06-0.46-0.109
		c-0.241-0.047-0.501-0.103-0.826-0.164c-0.325-0.062-0.659-0.111-1.018-0.148c-0.363-0.036-0.708-0.056-1.045-0.056
		c-1.061,0-2.073,0.111-3.038,0.332c-0.963,0.22-1.806,0.563-2.529,1.027c-0.724,0.467-1.297,1.076-1.718,1.836
		c-0.421,0.76-0.633,1.665-0.633,2.718c0,1.101,0.181,2.043,0.542,2.826c0.363,0.784,0.869,1.412,1.519,1.891
		c0.652,0.475,1.424,0.826,2.317,1.047c0.892,0.22,1.868,0.329,2.929,0.329c0.749,0,1.503-0.03,2.262-0.092
		c0.759-0.062,1.464-0.128,2.116-0.201c0.651-0.073,1.262-0.154,1.779-0.238c0.517-0.086,1.238-0.152,1.238-0.201V17.515
		c0-1.075-0.147-2.062-0.388-2.954C56.786,13.666,56.355,12.896,55.789,12.246z M52.849,21.058c0.54,0.088,1.129,0.191,1.129,0.313
		v5.692c0,0.098-0.877,0.164-1.492,0.2c-0.615,0.037-1.297,0.055-2.093,0.055c-1.325,0-2.365-0.237-3.136-0.716
		c-0.771-0.477-1.152-1.327-1.152-2.551c0-0.66,0.161-1.194,0.475-1.598c0.313-0.401,0.706-0.72,1.177-0.952
		c0.47-0.233,0.989-0.388,1.557-0.46c0.564-0.073,1.103-0.111,1.609-0.111"/>
	<path fill="#FFFFFF" d="M79.05,10.551c-2.204,0-4.148,1.066-5.48,2.641c-1.33-1.575-3.333-2.641-5.534-2.641
		c-4.41,0-7.249,2.645-7.249,6.509v12.78h3.436c0,0,0-9.514,0-12.779c0-1.205,1.159-3.013,3.773-3.013
		c1.822,0,3.79,1.253,3.79,3.013c0,3.222,0,12.779,0,12.779h3.436c0,0,0-9.6,0-12.779c0-1.76,1.968-3.013,3.79-3.013
		c2.612,0,3.773,1.807,3.773,3.013c0,3.222,0,12.779,0,12.779h3.437V17.061C86.221,13.667,83.63,10.551,79.05,10.551z"/>
	<path fill="#FFFFFF" d="M101.661,11.905c-0.567-0.646-1.314-1.149-2.242-1.504c-0.929-0.354-2.068-0.533-3.42-0.533
		c-1.181,0-2.279,0.092-3.291,0.274c-1.014,0.185-1.738,0.375-2.17,0.57l0.396,2.827c0.41-0.172,1.032-0.336,1.863-0.496
		c0.833-0.159,1.802-0.238,2.912-0.238c0.868,0,1.573,0.128,2.117,0.386c0.543,0.256,0.971,0.598,1.285,1.027
		c0.312,0.428,0.481,0.917,0.603,1.468c0.121,0.55,0.135,1.106,0.135,1.669v0.954c0-0.023-0.22-0.06-0.46-0.109
		c-0.241-0.047-0.501-0.103-0.826-0.164c-0.325-0.062-0.659-0.111-1.018-0.148c-0.363-0.036-0.708-0.056-1.044-0.056
		c-1.061,0-2.073,0.111-3.038,0.332c-0.963,0.22-1.806,0.563-2.529,1.027c-0.724,0.467-1.297,1.076-1.718,1.836
		c-0.421,0.76-0.633,1.665-0.633,2.718c0,1.101,0.181,2.043,0.542,2.826c0.363,0.784,0.869,1.412,1.519,1.891
		c0.652,0.475,1.424,0.826,2.317,1.047c0.892,0.22,1.868,0.329,2.929,0.329c0.749,0,1.503-0.03,2.262-0.092
		c0.759-0.062,1.464-0.128,2.116-0.201c0.651-0.073,1.262-0.154,1.779-0.238c0.517-0.086,1.238-0.152,1.238-0.201V17.173
		c0-1.075-0.147-2.062-0.388-2.954C102.658,13.324,102.227,12.554,101.661,11.905z M98.721,20.716
		c0.54,0.088,1.129,0.191,1.129,0.313v5.692c0,0.098-0.877,0.164-1.492,0.2c-0.615,0.037-1.297,0.055-2.093,0.055
		c-1.325,0-2.365-0.237-3.136-0.716c-0.771-0.477-1.152-1.327-1.152-2.551c0-0.66,0.161-1.194,0.475-1.598
		c0.313-0.401,0.706-0.72,1.177-0.952c0.47-0.233,0.989-0.388,1.557-0.46c0.564-0.073,1.103-0.111,1.609-0.111"/>
	<path fill="#FFFFFF" d="M112.983,22.736c0.954-1.371,1.905-2.712,2.859-3.961c0.951-1.247,1.638-2.401,2.471-3.429
		c0.83-1.026,1.802-1.836,1.802-2.401V10.23h-13.062v2.751h9.203c-0.649,1.372-1.415,1.872-2.296,3.011
		c-0.882,1.136-1.786,2.414-2.712,3.698c-0.929,1.286-1.859,2.607-2.704,3.905c-0.845,1.299-1.491,2.518-2.178,3.593v2.29h14.436
		v-2.75h-10.333C111.191,25.353,112.032,24.108,112.983,22.736z"/>
	<path fill="#FFFFFF" d="M139.654,17.305c-0.836-3.977-4.253-6.958-8.348-6.958c-2.247,0-4.284,0.904-5.807,2.369
		c-1.681,1.615-2.62,3.803-2.697,6.456c-0.009,0.322,0,0.897,0.007,1.214c0.014,0.629,0.201,2.572,0.592,3.784
		c0.397,1.213,1.001,2.258,1.816,3.14c0.813,0.879,1.85,1.572,3.109,2.073c1.258,0.501,2.913,0.756,4.636,0.626
		c4.123-0.313,5.829-1.914,6.26-2.133l-1.488-2.293c-0.434,0.195-2.149,1.346-4.727,1.461c-2.212,0.098-3.658-0.579-4.699-1.609
		c-1.043-1.029-1.745-2.602-1.793-4.665h1.062h7.879h4.252c0.034-0.197,0.066-0.395,0.086-0.596c0.037-0.326,0.058-0.655,0.058-0.99
		C139.851,18.537,139.782,17.91,139.654,17.305z M126.6,18.022c-0.001-0.023-0.003-0.048-0.004-0.068
		c0.069-0.645,0.046-1.066,0.279-1.678c0.151-0.386,0.282-0.724,0.457-1.042c0.507-0.819,1.246-1.478,2.128-1.883
		c0.073-0.035,0.142-0.066,0.217-0.096c0.049-0.021,0.104-0.037,0.152-0.057c0.115-0.042,0.231-0.08,0.35-0.114
		c0.035-0.01,0.072-0.019,0.105-0.027c0.328-0.083,0.675-0.132,1.062-0.132c0.868,0,1.756,0.194,2.505,0.559
		c0.555,0.299,1.046,0.702,1.445,1.182c0.715,0.941,1.146,2.062,1.132,3.323c0,0.01-0.003,0.022-0.003,0.033H126.6z"/>
	<g>
		<path fill="#FFFFFF" d="M165.574,19.207c0,7.089-3.198,10.633-9.593,10.633c-6.126,0-9.189-3.41-9.189-10.227V3.731l2.957-0.602
			v16.288c0,5.176,2.182,7.763,6.549,7.763c4.213,0,6.319-2.499,6.319-7.498V3.731l2.957-0.602V19.207z"/>
	</g>
</g>
</svg>
