<?xml version="1.0" encoding="utf-8"?>
<!-- Generator: Adobe Illustrator 17.0.0, SVG Export Plug-In . SVG Version: 6.00 Build 0)  -->
<!DOCTYPE svg PUBLIC "-//W3C//DTD SVG 1.1//EN" "http://www.w3.org/Graphics/SVG/1.1/DTD/svg11.dtd">
<svg version="1.1" id="Layer_1" xmlns="http://www.w3.org/2000/svg" xmlns:xlink="http://www.w3.org/1999/xlink" x="0px" y="0px"
	 width="673.667px" height="367.807px" viewBox="0 0 673.667 367.807" enable-background="new 0 0 673.667 367.807"
	 xml:space="preserve">
<linearGradient id="SVGID_1_" gradientUnits="userSpaceOnUse" x1="0" y1="272.7339" x2="322.8359" y2="272.7339">
	<stop  offset="0.2003" style="stop-color:#FFFFFF;stop-opacity:0.4"/>
	<stop  offset="0.8684" style="stop-color:#3FA9F5"/>
</linearGradient>
<path fill="url(#SVGID_1_)" d="M286.555,151.447c0,0-67.761-8.899-128.055,44.781C77.51,268.334,0,322.566,0,322.566v72.007
	c0,0,134.966-96.147,170.789-114.011c39.972-19.933,79.293-17.713,97.295-32.715c18.002-15.001,54.752-37.361,54.752-37.361
	L286.555,151.447z"/>
<path fill="#666666" stroke="#000000" stroke-width="2" stroke-miterlimit="10" d="M651.754,46.11
	c-1.616-0.227-5.254-0.715-11.421-0.715C631.499,45.394,618,48.061,618,48.061c-4.42-3.701-9.92-7.461-14.967-10.072
	c-33.64-17.399-78.879-13.92-78.879-13.92s-12.668-6.327-25.521-10.44c-11.898-3.808-37.875-9.736-41.761-6.96
	c-1.199,0.856-0.944,16.268,1.377,38.308c2.319,22.041,10.853,36.178,10.853,36.178s-3.172,10.68-3.79,20.633
	c-0.393,6.347,0.767,15.631,1.083,17.992c-25.911,13.737-99.057,53.607-111.022,60.309c-14.5,8.119-106.14,71.34-125.279,84.679
	c-19.141,13.342-111.197,64.342-106.141,85.842c5.671,24.117,40.862-5.926,55.046-15.133c28.5-18.5,70.871-51.976,77.25-54.875
	c2.997-1.362,11.991-4.949,18.125-5.875c-2.195,4.497-7.218,8.993-10.061,11.502c-9.86,8.7-39.95,35.35-35.96,44.659
	c4.646,10.839,20.533,4.604,26.771-0.786c10.125-8.75,15.25-17,15.25-17s15.375-1.375,25.75-9.75
	c12.829-10.355,25.25-27.375,25.25-27.375l7.898,12.572c0,0-2.9,8.7-10.44,15.079c-7.54,6.38-25.643,27.46-27.26,33.061
	c-1.866,6.461,4.574,8.586,8.301,8.413c8.768-0.404,18.015-10.774,21.125-15.125c3.177-4.443,4.375-8,4.375-8
	s16.894-1.675,27.25-7.875c19-11.375,27.208-29.208,27.208-29.208s25.717-10.652,34.417-15.292c0,0,52.605-28.405,63.625-33.625
	c10.576-5.009,48.125-24.125,69.375-35c7.889,0.201,14.988,0.364,26.583-1.249c35.042-4.876,55.521-19.892,70.833-62
	c6.323-17.389,6.437-34.929,0.334-51.668c3.211-3.696,9.526-14.355,10.666-24C656.825,52.253,657.334,46.894,651.754,46.11z"/>
<path fill="#666666" d="M469.042,121.206c0,0-1.612-11.223-1.159-18.537c0.617-9.941,3.784-20.607,3.784-20.607
	s-9.577-14.149-11.895-36.161c-2.317-22.013-3.515-37.377-2.317-38.232c3.88-2.772,29.825,3.148,41.708,6.951
	c12.836,4.108,25.488,10.427,25.488,10.427s45.183-3.475,78.78,13.903c33.598,17.378,55.031,61.403,41.128,99.635
	c-15.293,42.056-42.082,57.071-70.092,60.244c-49.136,5.566-62.469-9.434-62.469-9.434L469.042,121.206z"/>
<path fill="#666666" d="M621.391,47.639c0,0,15.061,0.579,19.695,0c4.634-0.579,8.099-0.708,11.006-0.579
	c3.826,0.17,3.475,5.844,2.316,15.64c-1.323,11.197-9.592,22.791-11.908,24.528c-2.317,1.738-26.323-38.431-26.323-38.431
	L621.391,47.639z"/>
<path fill="#666666" d="M285.991,274.134c0,0-22.592,2.317-28.963,5.214c-6.372,2.895-64.878,46.921-79.36,55.61
	c-14.482,8.689-47.5,37.651-52.714,16.22c-5.214-21.434,86.891-72.409,106.007-85.733c19.116-13.322,110.641-76.464,125.123-84.573
	c14.482-8.11,121.648-64.878,121.648-64.878s88.628,72.988,70.091,83.415c-18.536,10.428-59.665,30.702-70.671,35.915
	c-11.006,5.214-62.561,33.02-62.561,33.02c-8.689,4.634-34.756,16.798-34.756,16.798s-9.269,16.799-26.646,27.806
	c-10.184,6.449-27.805,8.689-27.805,8.689s-0.882,3.094-4.055,7.531c-3.106,4.345-12.098,15.236-20.854,15.641
	c-3.723,0.172-9.973-1.078-8.11-7.531c1.615-5.594,19.695-26.647,27.226-33.019c7.531-6.371,10.427-15.06,10.427-15.06
	l-8.689-12.744c0,0-12.165,15.061-24.909,25.487c-12.744,10.428-26.067,10.428-26.067,10.428s-8.689,11.585-15.061,16.799
	c-6.372,5.214-22.012,11.585-26.067,2.316c-4.055-9.268,26.067-35.914,35.915-44.604c9.848-8.688,16.219-35.915,16.219-35.915"/>
<path fill="#FFFFFF" stroke="#000000" stroke-width="2" stroke-miterlimit="10" d="M457.083,133.645c0,0,15.224-41.015-0.417-54.918
	c-6.538-5.812-13.467-8.006-22.833-6.666c-13.04,1.865-29.401,9.744-43.56,16.823c-24.329,12.164-58.607,27.843-75.94,41.177
	c-13.565,10.435-3.405,30.748,1.219,43.972c5.969,17.07,19.115,26.067,19.115,26.067L457.083,133.645z"/>
<path fill="#4B905A" d="M502.386,46.565c21.896-13.96,63.832,1.723,98.335,13.799c34.502,12.076,51.03,22.613,51.03,39.865
	c0,17.25,0.723,55.018-18.254,55.018c-18.976,0-39.103-11.501-35.652-33.927c3.45-22.428-8.193-22.293-15.095-18.842
	c-6.901,3.45-16.5,37-33.786,37.244c-20.699,0.292-65.554-0.002-63.829-31.055C486.86,77.615,487.553,56.023,502.386,46.565z"/>
<path fill="#68BE79" d="M508.086,61.281c18.721-11.22,54.58,1.385,84.083,11.091c29.502,9.706,52.363,20.205,52.363,34.071
	c0,13.865,0,44.368-16.227,44.368c-16.227,0-28.803-9.242-25.853-27.269c2.951-18.025-13.164-25.785-21.066-19.595
	c-6,4.7-14.887,35.03-33.474,32.208c-17.492-2.656-56.053-0.002-54.578-24.96C494.809,86.237,495.401,68.883,508.086,61.281z"/>
<path fill="#D0D2D3" d="M528.312,135.23c0,0-4.635,10.274-18.103,0.291c-13.463-9.983-14.804-9.784-19.445-17.996
	c-4.643-8.212-3.528-14.54-3.528-14.54s-1.724,11.838,16.808,25.577C526.739,145.391,528.312,135.23,528.312,135.23z"/>
<path fill="#333333" d="M565.941,126.698c0.09,3.045,0.521,6.155,1.892,8.773c0.665,1.299,1.611,2.432,2.811,3.106
	c1.191,0.7,2.583,0.928,4.018,0.826c1.382-0.097,2.759-0.503,3.967-1.21c1.221-0.698,2.277-1.679,3.213-2.773
	c1.863-2.192,3.199-4.959,4.09-7.684c0,0,0.254-0.832,1.176-0.591c1.014,0.264,0.737,1.088,0.737,1.088
	c-0.551,2.483-0.793,5.16-0.561,7.672c0.233,2.491,1.225,4.988,3.464,5.838c1.075,0.432,2.404,0.506,3.643,0.422
	c1.25-0.104,2.45-0.532,3.484-1.255c2.1-1.463,3.29-4.058,3.811-6.665c-0.049,1.348-0.333,2.7-0.859,3.972
	c-0.519,1.271-1.295,2.48-2.383,3.419c-1.079,0.946-2.473,1.532-3.889,1.765c-1.417,0.211-2.858,0.23-4.322-0.25
	c-1.45-0.469-2.726-1.565-3.46-2.877c-0.753-1.311-1.118-2.742-1.315-4.146c-0.372-2.837-0.099-5.589,0.465-8.355l1.913,0.497
	c-0.469,1.588-1.086,3.013-1.839,4.43c-0.75,1.404-1.633,2.752-2.696,3.976c-1.061,1.223-2.337,2.301-3.803,3.087
	c-1.468,0.784-3.113,1.249-4.796,1.256c-1.613,0.031-3.37-0.333-4.781-1.282c-1.418-0.949-2.396-2.365-3.015-3.832
	c-0.613-1.483-0.904-3.041-1.049-4.585C565.713,129.774,565.734,128.222,565.941,126.698z"/>
<path fill="#666666" stroke="#000000" stroke-width="2" stroke-miterlimit="10" d="M641.471,147.48
	c-3.476,8.688-13.721,24.248-13.721,24.248s13.388-5.691,23.815-14.38c10.427-8.688,20.173-26.709,17.435-30.954
	c-4.999-7.749-20,3.334-20,3.334"/>
<path fill="#4D4D4D" d="M648.227,130.089c0,0-0.039,14.105-0.81,21.056c-0.771,6.951-0.31,8.87-3.584,10.917
	c-6.178,3.862-15.583,9.291-15.583,9.291s4.25-5.375,11.584-20.958C643.144,143.363,648.227,130.089,648.227,130.089z"/>
<path fill="#CCCCCC" stroke="#000000" stroke-width="2" stroke-miterlimit="10" d="M599.922,59.925
	c-34.754-12.164-78.422-26.197-99.051-13.899c-15.222,9.074-15.64,31.277-17.377,62.556c-1.738,31.279,43.393,32.3,64.294,31.282
	c20.712-1.01,28.556-29.033,32.587-34.072c1-1.25,3.393-3.009,4.938-3.312c6.688-1.312,14.537,0.492,11.714,18.847
	c-3.477,22.59,16.797,34.175,35.912,34.175c19.115,0,19.115-38.229,19.115-55.605C652.054,82.518,634.676,72.089,599.922,59.925z
	 M628.885,146.232c-16.227,0-28.802-9.833-25.853-29.011c2.951-19.177-15.616-20.27-21.385-17.069
	c-9.147,5.076-10.075,32.64-33.155,30.488c-17.625-1.643-56.054-0.002-54.578-26.554c1.475-26.553,2.065-45.016,14.751-53.103
	c18.722-11.937,54.581,1.474,84.082,11.799c29.503,10.326,52.364,21.496,52.364,36.247
	C645.111,113.78,645.111,146.232,628.885,146.232z"/>
<path fill="#4D4D4D" d="M652.835,47.23c0,0-9.584,1.083-15.335,3.248c-3.189,1.2-11.75,6.25-11.75,6.25l-8-8.25
	c0,0,3.47-1.125,7.502-1.582C643.669,44.813,652.835,47.23,652.835,47.23z"/>
<path fill="#EA5E3E" d="M447.343,137.405c1.908-1.27,3.571-2.732,4.992-4.358C450.895,134.556,449.202,136.009,447.343,137.405z"/>
<path opacity="0.5" fill="#D0D2D3" d="M456.887,105.103c3.124,11.001,1.533,20.98-4.552,27.944c1.405-1.473,2.573-2.996,3.415-4.569
	C461.5,117.728,456.887,105.103,456.887,105.103z"/>
<path fill="#EA5E3E" stroke="#000000" stroke-width="2" stroke-miterlimit="10" d="M468.887,100.103
	c-7.72-27.375-24.168-29.119-34.186-27.537c-9.498,1.5-11.219,22.943-5.995,38.701c2.827,8.526,7.375,15.305,12.292,19.58
	c4.642,4.036,9.34,4.972,13.502,3.88c3.675-0.964,8.395-5.172,9.835-6.681C469.5,121.228,471.174,108.216,468.887,100.103z"/>
<path fill="#5B5B5B" d="M387.667,210.728l-11.917-32l-63,34.75c0,0,10.25-4.25,30.25-12.25s20.9-8.55,29-4.5
	C377.5,199.478,387.667,210.728,387.667,210.728z"/>
<path fill="#4D4D4D" d="M516.667,190.728c0,0,4.935,4.726,12.146,9.875c3.792,2.708,6.438,5.562,6.438,5.562l10.256-5.405
	l-0.085-0.032c0.441,0-6.691-1.336-13.921-3.812C524.136,194.392,516.667,190.728,516.667,190.728z"/>
<polygon fill="#4D4D4D" points="491.001,78.061 488.667,98.728 481.001,98.062 483.334,77.728 "/>
<path fill="#999999" d="M599.832,104.977l-2.457,1.501c0,0-2.293-5.535-9.125-5.25c-6,0.25-8.75,2.062-13.562,13.312
	c-4.579,10.705-12.815,22.585-23.812,23.937c-7.625,0.938-10.545,0.583-10.545,0.583l6-7.75c0,0,8.875,1.488,15.795-2.583
	c11.334-6.668,12.875-25.5,20.75-28.25C594.282,96.495,599.832,104.977,599.832,104.977z"/>
<path fill="#FFFFFF" d="M526.75,45.228c0,0-16.25-1.75-26.25,13.5c-5.518,8.415-8.792,42.441-6.5,53
	c1.248,5.749,4.581,7.999,4.581,7.999s-3.583-1-6.081-6.499c-2.312-5.09-0.25-47.5,7.25-57.25
	C509.082,43.847,526.75,45.228,526.75,45.228z"/>
<path fill="#FFFFFF" d="M497.331,50.145l6,4.917c0,0,4.75-6.167,12.5-8.333c6.91-1.932,17.169-1.25,17.169-1.25l-5-3.083
	c0,0-11.764-1.134-20.666,1.833C500.584,46.478,497.331,50.145,497.331,50.145z"/>
<polygon fill="#333333" points="483.334,77.728 484.918,75.976 492.834,76.394 490.167,98.561 488.667,98.728 491.001,78.061 "/>
<ellipse transform="matrix(0.9842 0.1772 -0.1772 0.9842 23.9396 -95.1083)" fill="#4B905A" cx="544.347" cy="86.45" rx="8.109" ry="17.378"/>
<ellipse transform="matrix(0.9842 0.1772 -0.1772 0.9842 30.0952 -110.2871)" fill="#4B905A" cx="632.388" cy="113.316" rx="6.179" ry="13.242"/>
<g>
	<path fill="#4D4D4D" d="M491,45.061l-7.997,1.279c-2.225-1.669-7.809-6.224-12.503-13.113
		c-4.894-7.181-13.331-24.915-13.331-24.915s-1.333,1.083,2.604,37.588c2.279,21.126,8.661,31.91,10.323,34.413
		c-1.482,8.841-2.596,12.414-2.596,12.414s1.727,2.911,2.5,6c0.75,3,1.18,7.062,1.166,7.416c0.023-0.477-0.664-4.06-0.416-7.75
		c0.745-1.653,1.414-1.921,2.666-2.5c2.167-1,6.584-1.166,6.584-1.166l-8.986-1.549c0.605-6.852,1.485-14.217,2.653-17.618
		C482.167,50.811,491,45.061,491,45.061z"/>
	<path fill="#4D4D4D" d="M470.004,107.902c-0.002,0.049-0.004,0.076-0.004,0.076S470.002,107.953,470.004,107.902z"/>
</g>
<path fill="#333333" d="M470.5,80.978c0,0,7-0.084,10.333-0.084c3.332,0,5.667-0.166,5.667-0.166l-2.5,15c0,0-13.666-2.333-15.666-3
	C466.334,92.062,470.5,80.978,470.5,80.978z"/>
<path fill="#808080" d="M485.016,81.061c0,0,0.363-1.009,1.136-1.027c0.771-0.018,1.726-0.541,0.878,4.48
	c-0.848,5.021-1.491,10.538-2.635,11.232c-1.143,0.694-1.549-0.13-1.549-0.13s0.597,0.653,1.314-1.698
	c0.717-2.351,2.074-10.386,2.043-11.718C486.171,80.868,485.016,81.061,485.016,81.061z"/>
<path fill="#FFFFFF" d="M641,86.811c2.418,1.918,7.222,5.249,7.835,12c0.462,5.078,0.333,9.334-0.833,21.167
	c-1.333,13.532-3.975,23.016-10.002,25.499c-2.832,1.167-7.417,1.75-7.417,1.75s7-0.584,10.917-10
	c2.376-5.712,4.333-17.5,4.75-32.75C646.599,91.711,641,86.811,641,86.811z"/>
<path fill="#5B5B5B" d="M389.5,170.603l5.5,14.25c0,0,34.199-26.19,41.25-32.458c5.625-5,14.334-13.917,14.334-13.917
	s-7.334,4.083-22.417,12.249C415.95,157.342,389.5,170.603,389.5,170.603z"/>
<path fill="#565656" d="M595.584,127.228c0,0-0.084-6.25-0.334-9.125c-0.335-3.857-0.916-10.875-8-9.625
	c-5.021,0.886-6.525,16.555-19.5,29.5c-18.074,18.033-39,11.25-39,11.25l9.75-8.375c0,0,10.208,1.209,18.125-1.875
	c6.792-2.645,14.312-11.937,19.25-22.5c2.142-4.582,3.664-7.429,5.312-9.875c1.938-2.875,6.106-4.277,9.562-3.125
	c2.625,0.875,4.083,1.968,5.084,4.5C597.959,113.353,595.584,127.228,595.584,127.228z"/>
<path fill="#808080" d="M486.667,99.395c0,0-1.429,11.706,1,17.333c2.085,4.83,5.667,5,5.667,5s-3.833-2.167-5.166-9.503
	C486.584,103.51,486.667,99.395,486.667,99.395z"/>
<path fill="#E6E6E6" d="M450.5,135.894c-2.083,0.417-3.001-0.25-5.333-1c-1.458-0.469-1.75-1.083-6.167-4.417
	c-12.432,7.422-49.761,31.035-65.332,39.038c-0.882-2.016-2.054-4.207-2.668-6.787c-2.5-10.501-5.75-27.501-5.75-27.501
	s0.75,17.5-2.25,29.5c-1.951,7.805-4.613,7.972-15.5,14.25c-17.274,8.375-22.833,10.251-22.833,10.251s1.583,1.499,3.333,3.499
	c4.849,5.541,7.25,5.75,7.25,5.75S439.658,141.717,450.5,135.894z"/>
<polygon opacity="0.51" fill="#D0D2D3" points="361,114.478 312,161.728 310,152.978 318.805,133.548 "/>
<path fill="#EA5E3E" stroke="#000000" stroke-width="2" stroke-linejoin="round" stroke-miterlimit="10" d="M286.084,156.351
	c0,0-31.959-3.873-50.959,10.627c-16.042,12.242-37.536,46.37-49.536,61.369c-12,15-28.499,21-28.499,21l19.499,1.5l-6,7.499
	c0,0,13.536,1.632,26.999-1.5c11.778-2.74,23.734-3.821,38.746-4.784c26-1.667,34.188-8.199,39-10.667c13-6.667,35-29,35-29
	s-15.001-14.502-19.5-26.501C286.334,173.895,286.084,156.351,286.084,156.351z"/>
<path fill="#FADD48" d="M287.584,173.851c0,0-16.5,3-28.499,8.999c-11.999,5.999-21.336,13.253-27.335,20.753
	s-8.874,9.745-13.875,14C209.5,224.728,196,229.394,196,229.394s7.625,0.459,24-8c9.716-5.018,14.667-7.334,14.667-7.334
	l-9.334,16.668c0,0,8.693-6.617,11.334-8c6.208-3.25,12.666-4,12.666-4L242,228.06c0,0,23.334-3.999,38.667-11.332
	c15.333-7.334,24.208-11.5,24.208-11.5s-8.874-5.834-12.208-15.834C289.333,179.394,287.584,173.851,287.584,173.851z"/>
<path fill="#7E8081" stroke="#000000" stroke-width="2" stroke-miterlimit="10" d="M307.5,143.895l-20.946,7.552
	c0,0-3.222,13.614,3.476,34.754c5.169,16.315,14.47,31.027,14.47,31.027l30.167-17.127c0,0-10-6.206-18-24.872
	C309.158,157.708,307.5,143.895,307.5,143.895z"/>
<path fill="#6D7071" d="M302.625,146.728c0,0,0.484,18.992,3.708,28.667c6.667,20,14.542,31.208,14.542,31.208l11.625-6.625
	c0,0-9.915-7.674-17-24.75c-6.5-15.666-8.75-29.75-8.75-29.75L302.625,146.728z"/>
<path fill="#CF5336" d="M468.166,101.228c0,0,2.072,11.168-6.242,17.872c-3.506,2.827-8.226,4.801-20.674,10.462
	c4.54,4.008,7.573,5.215,11.75,4.666c3.441-0.453,9.089-4.387,10.719-6.12C468,121.978,470.417,112.395,468.166,101.228z"/>
<path fill="none" stroke="#000000" stroke-miterlimit="10" d="M329.333,289.061c0,0,13,2.5,25,1s26.292-4.833,26.292-4.833"/>
<path d="M321.327,276.452l3.423-4.099c0,0-1.125,2.125-1.875,3.125s-1.375,2-1.375,2L321.327,276.452z"/>
<path d="M269.167,280.562c0,0,3.333-5.333,5-9.333c1.348-3.234,2.25-8.167,2.25-8.167s-0.393,5.6-1.042,7.667
	c-2.042,6.5-7.708,13.5-7.708,13.5L269.167,280.562z"/>
<path d="M514.625,189.04c0,0,10.562,6.125,20.75,8.812c6.464,1.705,12.377,2.069,14.375,2.167c2.562,0.125,4.625,0.145,4.625,0.145
	l-1,1.438c0,0-5.458,1.167-17.875-2.375C521.28,195.171,514.625,189.04,514.625,189.04z"/>
<path d="M271.667,313.895c0,0-1.333-0.166-3.333-0.333c-2-0.167-4-1.167-4-1.167s1-0.167,3.333,0
	c2.333,0.167,4.708-0.042,4.708-0.042L271.667,313.895z"/>
<path d="M326.667,322.895c0,0-1.333-0.166-3.333-0.333c-2-0.167-4-1.167-4-1.167s1.708,0.166,4.042,0.333s3.625-0.166,3.625-0.166
	L326.667,322.895z"/>
<path fill="#666666" stroke="#000000" stroke-width="2" stroke-miterlimit="10" d="M439.417,152.394
	c0,0,21.306-14.234,44.583-26.332c20.712-10.765,42.352-18.934,47.625-20.333c14.125-3.75,20.473,2.401,21.219,7.756
	c0.823,5.911-6.837,23.852-24.844,36.244c-23.25,16-40.57,23.615-46.75,28.25c-6.179,4.635-14.875,10.75-14.875,10.75"/>
<path fill="#666666" d="M438.307,152.329c0,0,82.08-43.376,93.456-45.569c13.568-2.616,20.081,2.317,20.081,7.724
	c0,5.406-7.723,23.943-26.259,35.528c-18.537,11.585-40.163,23.943-46.343,28.578c-6.179,4.635-13.902,12.357-13.902,12.357"/>
<path fill="#5B5B5B" d="M471.333,171.728c-4.277,3.391-29.181,40.121-27.333,38c13.5-15.5,61.477-46.372,66-49.5
	c7.591-5.249,20.6-12.152,27.131-19.425c4.952-5.512,7.377-8.339,8.869-11.325c0.56-1.121,2.5-4.75,2.5-4.75
	s-11.369,16.075-42.5,31.75C490.905,164.079,483,162.478,471.333,171.728z"/>
<path fill="none" stroke="#000000" stroke-miterlimit="10" d="M322.75,124.978c0,0,3.357,20.167,10.75,37
	c8.125,18.5,17.25,29.5,17.25,29.5"/>
<path opacity="0.67" fill="#5B5B5B" d="M395.333,222.061c0,0,5.31,4.585,4.667,17.667c-0.75,15.25-23.406,24.323-41.404,30.583
	c-25.54,8.883-36.721,6.917-36.721,6.917l7.75,11.25c0,0,7.682,1.693,19.5,1.25c9.451-0.355,22.134-2.37,31.5-5.125
	c2.125-0.625,8.601-3.932,12.375-5.75c27.25-13.125,34.625-16.125,34.625-16.125s-15.25-11.125-23.958-25.167
	C399.86,231.422,395.333,222.061,395.333,222.061z"/>
<path fill="#5B5B5B" d="M567.5,186.228c-29.25-2-34.966-6.485-41.833-9.5c-13.667-6-15.667-13-15.667-13s-31.25,17.75-37,21.75
	c-36.897,25.667-56,43.751-56,43.751s8.994,15.124,15.833,20.167c3.167,2.335,6.347,6.581,8.833,5.167
	c9.667-5.5,42.476-21.828,51.333-26.835c11.5-6.5,42.667-21.664,42.667-21.664s-12.186-9.988-21.795-17.229
	c11.44,6.103,26.136,11.56,42.128,11.56c51.334,0,70.086-28.579,70.086-28.579l9.248-15.421c-0.001-0.001-3,0.333-3,0.333
	S605.596,188.832,567.5,186.228z"/>
<path fill="#5B5B5B" d="M271.75,275.728c0,0,2.125-3.625,3-7.125c0.356-1.425,1.75-6.375,1.75-6.375s-4-2.75-57.25,36.75
	c-22.148,16.429-71.926,54.712-82.083,54.583s-10.334-11-10.334-11s-7.167,13.167,6.5,16.667c2.521,0.646,7.683-0.673,11.834-2.834
	c19.171-9.984,64.638-44.182,82.333-56.666c18.25-12.875,22.54-17.516,30-20.5C263.75,276.728,271.75,275.728,271.75,275.728z"/>
<path fill="#5B5B5B" d="M330.167,289.895c0,0,10.832,5.675,16.833,6.499c17,2.334,18.333,2,18.333,2s-3.458,6.084-6.708,8.959
	c-2.597,2.298-5.5,5.25-5.5,5.25s7.384-3.629,15.709-12.875c8.666-9.625,10.291-13.5,10.291-13.5s-11.875,3-24,4.375
	C343.321,291.942,330.167,289.895,330.167,289.895z"/>
<path fill="#808080" d="M440.835,151.062c0,0,59.665-28.834,69.665-32.834s24.501-9.499,31-9c4.515,0.347,9.001,1.668,9.001,1.668
	s-3.833-7-15.833-5.167C526.951,106.908,493,123.728,477,131.728S440.835,151.062,440.835,151.062z"/>
<path fill="#808080" d="M181.625,296.853c0,0,27.95-11.961,37.041-16.792c81.084-43.083,86.667-61.166,86.667-61.166
	s-6.38,6.397-15.333,13.333c-5.631,4.361-10.686,7.628-16.667,10.667c-12.708,6.458-20.333,7.5-20.333,7.5
	s-17.625,11.958-41.625,27.333C193.854,288.953,181.625,296.853,181.625,296.853z"/>
<path fill="#808080" d="M248.875,301.853c0,0,20.792-12.791,23.458-17.458C275,279.728,276,268.603,276,268.603
	s-0.667,5.126-5.333,11.792C266,287.061,248.875,301.853,248.875,301.853z"/>
<path fill="#808080" d="M304,320.728c0,0,17.875-14.125,22.25-19.5c3.393-4.169,3.375-11,3.375-11s-0.625,1.25-4.75,7.875
	c-3.978,6.389-8.25,7.375-13.625,14.125C306.181,318.593,304,320.728,304,320.728z"/>
<path fill="#5B5B5B" d="M231.166,322.728c0,0,0.209,11.75,11.834,8.25c15.792-4.755,23.625-14,23.625-14s-12.061,16.779-26.5,19.5
	c-8.625,1.625-11.458-4.915-11.125-7.915S231.166,322.728,231.166,322.728z"/>
<path fill="#EAC113" stroke="#000000" stroke-miterlimit="10" d="M379.667,93.393c0,0-3.165,0.85-3.333,4.335
	c-0.454,9.399,1.647,31.178,9.261,58.59c7.499,26.999,17.388,48.672,25.499,62.997c15.944,28.16,24.441,32.713,30.407,34.83
	c2.583,0.917,2.5-0.499,2.5-0.499s0.125,1.583-5.75,5.333c-6.137,3.917-8.221,3.178-9.75,2.917
	c-3.917-0.667-15.393-4.074-36.5-43.501c-17.667-33-27.5-86.417-30.25-101.417c-1.079-5.886-1.26-8.498-1.375-10.625
	c-0.25-4.625,1.458-5.96,1.458-5.96s5.502-3.081,12.167-6.415C377.833,92.06,379.667,93.393,379.667,93.393z"/>
<polygon fill="#C4A72C" stroke="#000000" stroke-linejoin="round" stroke-miterlimit="10" points="423.167,237.395 408,245.895 
	424.667,263.062 439.167,253.062 "/>
<polygon fill="none" points="377.661,190.505 382.271,188.408 380.18,184.573 374.605,187.427 "/>
<g>
	<polygon fill="#E85138" points="408.575,101.377 423.742,129.188 394.219,142.098 384.855,132.495 381.892,119.4 	"/>
	<polygon fill="#EA6853" points="416.125,115.165 423.742,129.188 394.219,142.098 384.855,132.495 	"/>
	<polygon fill="#E6E6E6" points="405.969,109.461 415.535,127.001 411.202,128.95 404.025,115.792 400.835,117.859 407.739,130.516 
		396.653,135.474 390.505,129.275 389.339,120.891 394.964,116.988 396.89,120.518 393.716,122.527 394.444,127.265 
		397.661,130.505 402.271,128.408 395.621,116.214 	"/>
	<g>
		<polygon fill="#FFFFFF" points="402.271,128.408 397.661,130.505 394.444,127.265 390.505,129.275 396.653,135.474 
			407.739,130.516 403.25,122.29 399.938,124.103 		"/>
		<polygon fill="#FFFFFF" points="411.202,128.95 415.535,127.001 410.688,118.103 406.562,120.415 		"/>
	</g>
</g>
<g>
	<polygon fill="#D0D2D3" stroke="#000000" stroke-linejoin="round" stroke-miterlimit="10" points="361,114.478 305,97.728 
		273.8,103.545 318.805,133.548 	"/>
	<polygon fill="#FFFFFF" points="275.25,103.978 305.083,98.145 359.917,114.478 356,115.978 305.25,99.978 276,104.311 	"/>
</g>
</svg>
